<svg xmlns="http://www.w3.org/2000/svg" width="420" height="160" viewBox="0 0 420 160" role="img" aria-label="Nova Cloud">
  <defs>
    <linearGradient id="ng" x1="0" y1="0" x2="1" y2="1">
      <stop offset="0" stop-color="#fb7185"/>
      <stop offset="1" stop-color="#f59e0b"/>
    </linearGradient>
  </defs>
  <rect x="0" y="0" width="420" height="160" rx="24" fill="#1a0b12"/>
  <path d="M74 108c-16 0-29-10-29-24 0-12 9-22 22-24 4-14 18-24 35-24 18 0 33 10 37 25 13 2 23 12 23 24 0 14-13 23-29 23H74z" fill="#111827" opacity="0.9"/>
  <path d="M74 108c-16 0-29-10-29-24 0-12 9-22 22-24 4-14 18-24 35-24 18 0 33 10 37 25 13 2 23 12 23 24 0 14-13 23-29 23H74z" fill="url(#ng)" opacity="0.35"/>
  <path d="M84 94l18-46 18 46h-11l-7-19-7 19H84z" fill="#fff" opacity="0.95"/>
  <text x="160" y="90" fill="#fff7ed" font-family="Google Sans, Roboto, Arial, sans-serif" font-size="40" font-weight="800">Nova</text>
  <text x="160" y="118" fill="#fdba74" font-family="Google Sans, Roboto, Arial, sans-serif" font-size="16" font-weight="800" letter-spacing="2">CLOUD</text>
</svg>
